<?xml version="1.0" encoding="UTF-8" standalone="no"?>
<!-- Created with Inkscape (http://www.inkscape.org/) -->

<svg
   width="210mm"
   height="297mm"
   viewBox="0 0 210 297"
   version="1.1"
   id="svg1"
   inkscape:version="1.4.2 (f4327f4, 2025-05-13)"
   sodipodi:docname="oso.svg"
   xmlns:inkscape="http://www.inkscape.org/namespaces/inkscape"
   xmlns:sodipodi="http://sodipodi.sourceforge.net/DTD/sodipodi-0.dtd"
   xmlns="http://www.w3.org/2000/svg"
   xmlns:svg="http://www.w3.org/2000/svg">
  <sodipodi:namedview
     id="namedview1"
     pagecolor="#ffffff"
     bordercolor="#000000"
     borderopacity="0.25"
     inkscape:showpageshadow="2"
     inkscape:pageopacity="0.0"
     inkscape:pagecheckerboard="0"
     inkscape:deskcolor="#d1d1d1"
     inkscape:document-units="mm"
     inkscape:zoom="0.53606888"
     inkscape:cx="366.55737"
     inkscape:cy="495.27217"
     inkscape:window-width="1920"
     inkscape:window-height="1111"
     inkscape:window-x="-9"
     inkscape:window-y="1341"
     inkscape:window-maximized="1"
     inkscape:current-layer="g1" />
  <defs
     id="defs1" />
  <g
     inkscape:label="Capa 1"
     inkscape:groupmode="layer"
     id="layer1">
    <g
       id="g12"
       style="stroke-width:2.1;stroke-dasharray:none"
       inkscape:export-filename="oso.png"
       inkscape:export-xdpi="96"
       inkscape:export-ydpi="96"
       transform="translate(-37.221504,-41.237761)">
      <g
         id="g20">
        <g
           id="g1"
           transform="matrix(1.7856775,0,0,1.7856775,-48.97432,-56.441244)">
          <g
             id="g3">
            <g
               id="g2"
               style="stroke-width:3.34774663;stroke-dasharray:none">
              <g
                 id="g14"
                 style="fill:none;stroke-width:3.34774663;stroke-dasharray:none">
                <path
                   style="fill:none;stroke:#000000;stroke-width:3.34774663;stroke-linecap:round;stroke-linejoin:round;stroke-dasharray:none;stroke-opacity:1;paint-order:stroke markers fill"
                   d="m 152.94976,106.13998 -11.08078,-8.899529 9.51028,-12.869418 0.78525,-3.402761 -1.5705,-4.013515 c -1.60911,-1.832255 -3.15155,-3.664511 -5.23502,-5.496766 -3.2671,-2.394415 -7.17175,-3.513728 -11.25529,-4.275264 h -15.2688 l -2.79201,0.610751 -4.62608,-6.841665 -5.58221,6.754413 -14.134541,-0.348999 -7.939778,3.14101 -5.671268,4.275266 -4.711518,5.235016 -4.991762,10.690799 -1.384667,11.961622 0.493565,12.46244 0.246779,10.4882 8.637339,2.22103 7.896995,-0.98713 7.033262,-4.93562 5.922746,-7.15665 3.578328,-5.05901 1.85086,-3.57833 z"
                   id="path2"
                   sodipodi:nodetypes="cccccccccccccccccccccccccc" />
                <path
                   style="fill:none;stroke:#000000;stroke-width:3.34774663;stroke-linecap:round;stroke-linejoin:round;stroke-dasharray:none;stroke-opacity:1;paint-order:stroke markers fill"
                   d="m 77.042009,100.20696 5.278641,-9.553906 -7.416273,-6.849147 12.869418,-0.654378 3.05376,-5.627643 2.966511,5.976644 12.956664,0.523502 -8.288774,6.282021 5.714894,9.030406 -13.174795,-6.063895 z"
                   id="path3" />
                <path
                   style="fill:none;fill-opacity:1;stroke:#000000;stroke-width:3.34774663;stroke-linecap:round;stroke-linejoin:round;stroke-dasharray:none;stroke-opacity:1;paint-order:stroke markers fill"
                   d="m 103.34797,106.75073 2.00676,4.05714 2.35576,1.17788 4.49339,-2.61751 5.23501,-1.70138 12.21505,-1.396 z"
                   id="path4" />
                <path
                   style="fill:none;stroke:#000000;stroke-width:3.34774663;stroke-linecap:round;stroke-linejoin:round;stroke-dasharray:none;stroke-opacity:1;paint-order:stroke markers fill"
                   d="m 127.55993,107.75411 -4.01352,2.05038 -2.094,4.23164 0.21812,4.58064 1.57051,3.35914 2.53026,2.96651 3.75176,2.44301 7.6344,-3.31551 8.02703,-3.40277 6.95606,-1.65697 3.51662,-1.91255 1.97425,-3.51663 v -3.51663 l -3.20815,-2.89968 z"
                   id="path5" />
                <path
                   style="fill:none;fill-opacity:1;stroke:#000000;stroke-width:3.34774663;stroke-linecap:round;stroke-linejoin:round;stroke-dasharray:none;stroke-opacity:1;paint-order:stroke markers fill"
                   d="m 149.15438,117.74427 2.53025,-3.01014 3.14102,-2.05038 -1.65776,-1.48325 -4.05714,-0.65438 -4.36252,0.95975 -1.87587,0.56713 0.65437,1.30876 1.96313,1.43963 1.87588,-1.74501 0.78526,1.13425 0.698,1.96313 z"
                   id="path6" />
                <path
                   style="fill:none;stroke:#000000;stroke-width:3.34774663;stroke-linecap:round;stroke-linejoin:round;stroke-dasharray:none;stroke-opacity:1;paint-order:stroke markers fill"
                   d="m 144.57373,119.62015 -5.23501,-0.65438 -4.18802,-1.2215 -1.9195,-0.13088 -1.52688,1.39601 -1.65776,-1.70138"
                   id="path7" />
                <path
                   style="fill:none;stroke:#000000;stroke-width:3.34774663;stroke-linecap:round;stroke-linejoin:round;stroke-dasharray:none;stroke-opacity:1;paint-order:stroke markers fill"
                   d="m 137.58046,124.74784 4.62715,4.19528 -5.67597,-0.0617 1.48069,8.20547 h -4.44206 l -3.26985,5.67596 -6.10783,-4.13358 -5.98444,-0.12339 -1.54239,-4.68884 -4.62714,-0.80204 4.07189,-5.79936"
                   id="path8" />
                <path
                   style="fill:none;stroke:#000000;stroke-width:3.34774663;stroke-linecap:round;stroke-linejoin:round;stroke-dasharray:none;stroke-opacity:1;paint-order:stroke markers fill"
                   d="m 140.64747,130.09019 2.96651,5.84577 6.10752,7.32902 5.14777,4.10076 1.30875,3.66452 -2.18125,2.53026 -1.30876,1.83225 0.5235,3.31551 -2.70475,3.05376 -1.39601,0.69801"
                   id="path9" />
                <path
                   style="fill:none;stroke:#000000;stroke-width:3.34774663;stroke-linecap:round;stroke-linejoin:round;stroke-dasharray:none;stroke-opacity:1;paint-order:stroke markers fill"
                   d="m 137.41921,130.61369 4.53702,12.47679 3.40276,8.72503 3.40276,9.07403 0.39263,5.80214 -1.13426,4.58064 -2.70476,4.40615 -4.75514,2.9665 -5.50927,3.35609 -4.99731,3.39324 -7.55423,0.71057 -18.06081,-0.0872 -0.698,13.43654 1.48325,3.40276 4.71152,1.83226 3.57726,1.13425 -0.0872,2.61751 -3.66451,4.01351 -6.36927,0.43625 -7.852531,1.74501 -10.993535,-0.43625 -8.907129,0.62347 -10.241415,-0.24678 -7.156651,-5.30579 0.24678,-5.05901 2.961372,-6.29292 3.454938,-4.81223 0.863732,-7.03327 0.987126,-8.88411 -0.616953,-9.74786"
                   id="path10" />
                <path
                   style="fill:none;stroke:#000000;stroke-width:3.34774663;stroke-linecap:round;stroke-linejoin:round;stroke-dasharray:none;stroke-opacity:1;paint-order:stroke markers fill"
                   d="m 136.46995,182.12445 -1.3573,6.16953 0.49356,4.81223 2.34442,2.83798 3.9485,2.22103 2.46781,1.97425 4.19528,2.34442 1.23391,1.2339 -2.59121,1.72747 -2.22103,2.22103 -5.42918,0.24678 -15.91738,0.24678 -9.1309,-1.11051"
                   id="path11" />
                <path
                   style="fill:none;stroke:#000000;stroke-width:3.34774663;stroke-linecap:round;stroke-linejoin:round;stroke-dasharray:none;stroke-opacity:1;paint-order:stroke markers fill"
                   d="m 95.442589,147.20492 1.233906,3.51663 1.233905,3.08477 -2.09764,2.83798 -5.614271,2.15933 -5.614268,-0.0617 -3.640021,2.34442 -8.143777,4.01019 -5.490879,1.54238 -6.478005,-2.09763 -4.68884,-4.81224 -0.925428,-2.83798 1.974247,-6.35461 3.825107,-5.98444 7.8353,-12.27736 2.282727,-5.61427"
                   id="path12" />
                <path
                   style="fill:none;fill-opacity:1;stroke:#000000;stroke-width:3.34774663;stroke-linecap:round;stroke-linejoin:round;stroke-dasharray:none;stroke-opacity:1;paint-order:stroke markers fill"
                   d="M 141.77574,97.108361 H 122.03325"
                   id="path13" />
                <path
                   style="fill:none;fill-opacity:1;stroke:#000000;stroke-width:3.34774663;stroke-linecap:round;stroke-linejoin:round;stroke-dasharray:none;stroke-opacity:1;paint-order:stroke markers fill"
                   d="m 117.34441,96.861579 h -3.20815"
                   id="path14" />
              </g>
            </g>
          </g>
        </g>
      </g>
    </g>
  </g>
</svg>
