<?xml version="1.0" encoding="UTF-8" standalone="no"?>
<!-- Created with Inkscape (http://www.inkscape.org/) -->

<svg
   width="210mm"
   height="297mm"
   viewBox="0 0 210 297"
   version="1.1"
   id="svg1"
   sodipodi:docname="oso_color.svg"
   inkscape:version="1.4.2 (f4327f4, 2025-05-13)"
   xmlns:inkscape="http://www.inkscape.org/namespaces/inkscape"
   xmlns:sodipodi="http://sodipodi.sourceforge.net/DTD/sodipodi-0.dtd"
   xmlns="http://www.w3.org/2000/svg"
   xmlns:svg="http://www.w3.org/2000/svg">
  <sodipodi:namedview
     id="namedview1"
     pagecolor="#ffffff"
     bordercolor="#000000"
     borderopacity="0.25"
     inkscape:showpageshadow="2"
     inkscape:pageopacity="0.0"
     inkscape:pagecheckerboard="0"
     inkscape:deskcolor="#d1d1d1"
     inkscape:document-units="mm"
     inkscape:zoom="0.53606888"
     inkscape:cx="366.55737"
     inkscape:cy="495.27217"
     inkscape:window-width="1920"
     inkscape:window-height="1111"
     inkscape:window-x="-9"
     inkscape:window-y="1341"
     inkscape:window-maximized="1"
     inkscape:current-layer="g1" />
  <defs
     id="defs1" />
  <g
     inkscape:label="Capa 1"
     inkscape:groupmode="layer"
     id="layer1">
    <g
       id="g12"
       style="stroke-width:2.1;stroke-dasharray:none"
       inkscape:export-filename="oso.png"
       inkscape:export-xdpi="96"
       inkscape:export-ydpi="96"
       transform="translate(-37.221504,-41.237761)">
      <g
         id="g20">
        <g
           id="g1"
           transform="matrix(1.7856775,0,0,1.7856775,-48.97432,-56.441244)">
          <g
             id="g14">
            <path
               style="fill:none;stroke:#000000;stroke-width:2.1;stroke-linecap:round;stroke-linejoin:round;stroke-dasharray:none;stroke-opacity:1;paint-order:stroke markers fill"
               d="m 152.94976,106.13998 -11.08078,-8.899529 9.51028,-12.869418 0.78525,-3.402761 -1.5705,-4.013515 c -1.60911,-1.832255 -3.15155,-3.664511 -5.23502,-5.496766 -3.2671,-2.394415 -7.17175,-3.513728 -11.25529,-4.275264 h -15.2688 l -2.79201,0.610751 -4.62608,-6.841665 -5.58221,6.754413 -14.134541,-0.348999 -7.939778,3.14101 -5.671268,4.275266 -4.711518,5.235016 -4.991762,10.690799 -1.384667,11.961622 0.493565,12.46244 0.246779,10.4882 8.637339,2.22103 7.896995,-0.98713 7.033262,-4.93562 5.922746,-7.15665 3.578328,-5.05901 1.85086,-3.57833 z"
               id="path2"
               sodipodi:nodetypes="cccccccccccccccccccccccccc" />
            <path
               style="fill:none;stroke:#000000;stroke-width:2.1;stroke-linecap:round;stroke-linejoin:round;stroke-dasharray:none;stroke-opacity:1;paint-order:stroke markers fill"
               d="m 77.042009,100.20696 5.278641,-9.553906 -7.416273,-6.849147 12.869418,-0.654378 3.05376,-5.627643 2.966511,5.976644 12.956664,0.523502 -8.288774,6.282021 5.714894,9.030406 -13.174795,-6.063895 z"
               id="path3" />
            <path
               style="fill:#000000;fill-opacity:1;stroke:#000000;stroke-width:2.1;stroke-linecap:round;stroke-linejoin:round;stroke-dasharray:none;stroke-opacity:1;paint-order:stroke markers fill"
               d="m 103.34797,106.75073 2.00676,4.05714 2.35576,1.17788 4.49339,-2.61751 5.23501,-1.70138 12.21505,-1.396 z"
               id="path4" />
            <path
               style="fill:none;stroke:#000000;stroke-width:2.1;stroke-linecap:round;stroke-linejoin:round;stroke-dasharray:none;stroke-opacity:1;paint-order:stroke markers fill"
               d="m 127.55993,107.75411 -4.01352,2.05038 -2.094,4.23164 0.21812,4.58064 1.57051,3.35914 2.53026,2.96651 3.75176,2.44301 7.6344,-3.31551 8.02703,-3.40277 6.95606,-1.65697 3.51662,-1.91255 1.97425,-3.51663 v -3.51663 l -3.20815,-2.89968 z"
               id="path5" />
            <path
               style="fill:#000000;fill-opacity:1;stroke:#000000;stroke-width:2.1;stroke-linecap:round;stroke-linejoin:round;stroke-dasharray:none;stroke-opacity:1;paint-order:stroke markers fill"
               d="m 149.15438,117.74427 2.53025,-3.01014 3.14102,-2.05038 -1.65776,-1.48325 -4.05714,-0.65438 -4.36252,0.95975 -1.87587,0.56713 0.65437,1.30876 1.96313,1.43963 1.87588,-1.74501 0.78526,1.13425 0.698,1.96313 z"
               id="path6" />
            <path
               style="fill:none;stroke:#000000;stroke-width:2.1;stroke-linecap:round;stroke-linejoin:round;stroke-dasharray:none;stroke-opacity:1;paint-order:stroke markers fill"
               d="m 144.57373,119.62015 -5.23501,-0.65438 -4.18802,-1.2215 -1.9195,-0.13088 -1.52688,1.39601 -1.65776,-1.70138"
               id="path7" />
            <path
               style="fill:none;stroke:#000000;stroke-width:2.1;stroke-linecap:round;stroke-linejoin:round;stroke-dasharray:none;stroke-opacity:1;paint-order:stroke markers fill"
               d="m 137.58046,124.74784 4.62715,4.19528 -5.67597,-0.0617 1.48069,8.20547 h -4.44206 l -3.26985,5.67596 -6.10783,-4.13358 -5.98444,-0.12339 -1.54239,-4.68884 -4.62714,-0.80204 4.07189,-5.79936"
               id="path8" />
            <path
               style="fill:none;stroke:#000000;stroke-width:2.1;stroke-linecap:round;stroke-linejoin:round;stroke-dasharray:none;stroke-opacity:1;paint-order:stroke markers fill"
               d="m 140.64747,130.09019 2.96651,5.84577 6.10752,7.32902 5.14777,4.10076 1.30875,3.66452 -2.18125,2.53026 -1.30876,1.83225 0.5235,3.31551 -2.70475,3.05376 -1.39601,0.69801"
               id="path9" />
            <path
               style="fill:none;stroke:#000000;stroke-width:2.1;stroke-linecap:round;stroke-linejoin:round;stroke-dasharray:none;stroke-opacity:1;paint-order:stroke markers fill"
               d="m 137.41921,130.61369 4.53702,12.47679 3.40276,8.72503 3.40276,9.07403 0.39263,5.80214 -1.13426,4.58064 -2.70476,4.40615 -4.75514,2.9665 -5.50927,3.35609 -4.99731,3.39324 -7.55423,0.71057 -18.06081,-0.0872 -0.698,13.43654 1.48325,3.40276 4.71152,1.83226 3.57726,1.13425 -0.0872,2.61751 -3.66451,4.01351 -6.36927,0.43625 -7.852531,1.74501 -10.993535,-0.43625 -8.907129,0.62347 -10.241415,-0.24678 -7.156651,-5.30579 0.24678,-5.05901 2.961372,-6.29292 3.454938,-4.81223 0.863732,-7.03327 0.987126,-8.88411 -0.616953,-9.74786"
               id="path10" />
            <path
               style="fill:none;stroke:#000000;stroke-width:2.1;stroke-linecap:round;stroke-linejoin:round;stroke-dasharray:none;stroke-opacity:1;paint-order:stroke markers fill"
               d="m 136.46995,182.12445 -1.3573,6.16953 0.49356,4.81223 2.34442,2.83798 3.9485,2.22103 2.46781,1.97425 4.19528,2.34442 1.23391,1.2339 -2.59121,1.72747 -2.22103,2.22103 -5.42918,0.24678 -15.91738,0.24678 -9.1309,-1.11051"
               id="path11" />
            <path
               style="fill:none;stroke:#000000;stroke-width:2.1;stroke-linecap:round;stroke-linejoin:round;stroke-dasharray:none;stroke-opacity:1;paint-order:stroke markers fill"
               d="m 95.442589,147.20492 1.233906,3.51663 1.233905,3.08477 -2.09764,2.83798 -5.614271,2.15933 -5.614268,-0.0617 -3.640021,2.34442 -8.143777,4.01019 -5.490879,1.54238 -6.478005,-2.09763 -4.68884,-4.81224 -0.925428,-2.83798 1.974247,-6.35461 3.825107,-5.98444 7.8353,-12.27736 2.282727,-5.61427"
               id="path12" />
            <path
               style="fill:#000000;fill-opacity:1;stroke:#000000;stroke-width:2.1;stroke-linecap:round;stroke-linejoin:round;stroke-dasharray:none;stroke-opacity:1;paint-order:stroke markers fill"
               d="M 141.77574,97.108361 H 122.03325"
               id="path13" />
            <path
               style="fill:#000000;fill-opacity:1;stroke:#000000;stroke-width:2.1;stroke-linecap:round;stroke-linejoin:round;stroke-dasharray:none;stroke-opacity:1;paint-order:stroke markers fill"
               d="m 117.34441,96.861579 h -3.20815"
               id="path14" />
          </g>
          <path
             style="fill:#c2a68a;fill-opacity:1;stroke:#000000;stroke-width:7.40279259;stroke-linecap:round;stroke-linejoin:round;stroke-dasharray:none;stroke-opacity:1;paint-order:stroke markers fill"
             d="m 252.26862,806.48649 c -3.35939,-0.49252 -6.61998,-2.37395 -15.86725,-9.15576 l -11.63899,-8.53587 0.34266,-7.78666 c 0.31547,-7.16866 0.75906,-8.675 5.58908,-18.97926 2.90586,-6.19931 8.24847,-15.38762 11.97562,-20.59588 l 6.72921,-9.40329 1.43986,-11.11646 c 5.02238,-38.77563 6.00515,-51.18369 5.13882,-64.88095 -0.46583,-7.36508 -1.04445,-15.38474 -1.2858,-17.82146 -0.34079,-3.44048 -0.13824,-4.43041 0.90647,-4.43041 8.02891,0 43.00688,-14.78537 58.14512,-24.57825 l 6.70268,-4.33594 h 10.41555 c 10.1624,0 10.69807,-0.10734 22.03939,-4.41621 11.32667,-4.30329 11.73904,-4.55964 16.12962,-10.02669 2.47817,-3.08577 4.75946,-6.53357 5.06952,-7.66177 0.35218,-1.28147 -0.81736,-5.65691 -3.11639,-11.65895 -2.02408,-5.28422 -4.40773,-11.60215 -5.29699,-14.03984 -1.7425,-4.7766 -4.88469,-6.61896 -7.53599,-4.41858 -2.25997,1.87561 -1.56033,6.36045 2.72916,17.49457 l 4.04876,10.50926 -3.03013,3.94784 c -2.60466,3.39349 -4.32749,4.43898 -12.26929,7.44553 -8.78716,3.32657 -9.78086,3.49768 -20.31298,3.49768 h -11.07385 l -7.08854,4.54404 c -16.43549,10.53582 -47.08528,24.00307 -56.01779,24.61371 -0.79057,0.054 -6.33579,-1.4494 -12.32271,-3.34099 l -10.88529,-3.43925 -7.96345,-8.53418 c -5.12504,-5.49235 -8.43296,-9.91215 -9.28074,-12.40024 -1.25575,-3.68543 -1.15547,-4.38686 2.14636,-15.01306 3.40432,-10.95603 3.837,-11.73027 25.25475,-45.19114 15.6998,-24.52776 22.80723,-36.52099 25.42629,-42.90493 1.99937,-4.87344 3.94885,-9.19678 4.33218,-9.60742 0.38332,-0.41064 4.22242,0.18485 8.53132,1.32331 l 7.83437,2.06993 16.04835,-1.95405 16.04836,-1.95404 13.79855,-9.68794 c 12.77328,-8.96809 14.58042,-10.61918 24.32098,-22.22081 11.06346,-13.17727 23.76483,-30.38137 27.92471,-37.82421 l 2.46632,-4.41273 2.87782,5.99124 c 2.57674,5.3644 3.4616,6.30564 8.45748,8.99634 3.0688,1.6528 6.18206,3.0169 6.91833,3.03132 0.73629,0.0144 5.38182,-2.28305 10.32341,-5.10551 11.76078,-6.71732 23.01448,-10.4867 36.33732,-12.17102 5.87994,-0.74336 11.54619,-1.32315 12.59167,-1.28844 1.76308,0.0585 1.74286,0.13913 -0.27893,1.11149 -1.39341,0.67014 -3.87839,4.43294 -6.88802,10.42993 l -4.7082,9.38157 0.60226,9.91989 c 0.73218,12.06009 3.62376,19.34086 11.53447,29.04288 5.57226,6.83404 19.05912,16.53383 22.98912,16.53383 1.19073,0 7.78691,-2.47637 14.65818,-5.50304 l 12.49323,-5.50304 4.01322,3.87079 4.01322,3.87078 -5.78321,0.46636 c -3.89096,0.31377 -6.08782,0.95249 -6.71418,1.95212 -0.81084,1.29401 1.39364,17.22858 3.69783,26.72889 0.49132,2.02574 0.28109,2.09862 -6.05451,2.09862 -6.84356,0 -8.34326,0.7057 -10.56069,4.96949 -0.57948,1.11423 -2.69259,4.85682 -4.69579,8.31687 l -3.6422,6.29098 -9.98839,-6.73497 -9.98838,-6.73497 -10.44953,-0.35484 -10.44951,-0.35483 -2.49985,-7.59562 c -1.3749,-4.1776 -2.87704,-8.07466 -3.33808,-8.66013 -0.46105,-0.58548 -2.81841,-1.34389 -5.2386,-1.68538 -8.36938,-1.18091 -8.29114,-0.67983 -1.60365,-10.27167 3.33525,-4.78374 6.0641,-9.30715 6.0641,-10.05201 0,-1.70621 -2.96079,-4.44156 -4.80762,-4.44156 -1.87901,0 -3.92173,2.3879 -12.31469,14.39564 -9.90239,14.16728 -9.65961,15.53415 3.15934,17.78794 4.23798,0.74511 7.79708,1.46855 7.90912,1.60764 0.11204,0.1391 1.31669,3.61069 2.67699,7.71464 1.36031,4.10395 2.87102,8.09131 3.35714,8.8608 0.69023,1.09259 3.47962,1.4721 12.73345,1.73246 l 11.8496,0.33339 11.8852,7.91732 c 8.87394,5.91134 12.37011,7.7634 13.79908,7.30986 1.17207,-0.372 4.17042,-4.56412 7.73578,-10.81567 l 5.82189,-10.20822 h 8.20415 c 4.51227,0 8.51893,0.048 8.90368,0.10673 0.38474,0.0587 3.91079,8.55807 7.83566,18.88749 3.92487,10.32942 11.31106,29.73297 16.41375,43.119 9.14658,23.99447 9.28684,24.48386 9.93004,34.64873 0.86589,13.68411 -1.24432,22.50543 -8.03556,33.59115 l -4.7177,7.70095 -14.90058,9.08794 c -8.1953,4.99836 -20.80794,12.98376 -28.02805,17.74534 l -13.1275,8.65741 -13.58124,1.36721 c -9.29509,0.93572 -24.6573,1.36785 -48.67708,1.36928 -27.3314,0.002 -35.31449,0.26557 -36.08426,1.19309 -0.5604,0.67523 -1.62511,12.713 -2.45858,27.79691 l -1.47012,26.60589 3.14641,7.23582 c 1.73053,3.97971 3.52001,7.59312 3.97663,8.02983 1.04222,0.99678 16.59929,7.03524 24.46639,9.4966 5.66259,1.77163 5.88799,1.95704 5.2905,4.35168 -0.34324,1.37566 -3.04837,5.2294 -6.0114,8.56386 l -5.38732,6.06265 -10.16306,0.73258 c -5.58968,0.40293 -17.12694,2.2135 -25.63836,4.0235 l -15.4753,3.29091 -26.49692,-0.26992 c -14.5733,-0.14845 -38.24914,-10e-4 -52.61296,0.32727 -14.36383,0.32846 -28.01877,0.31824 -30.34432,-0.0227 z"
             id="path15"
             transform="scale(0.26458333)" />
          <path
             style="fill:#c2a68a;fill-opacity:1;stroke:#000000;stroke-width:7.40297;stroke-linecap:round;stroke-linejoin:round;stroke-dasharray:none;stroke-opacity:1;paint-order:stroke markers fill"
             d="m 457.49718,781.13397 c -2.82147,-0.39649 -9.34848,-1.22173 -14.50448,-1.83386 -8.14348,-0.96682 -9.49081,-1.37778 -10.25988,-3.12942 -0.58523,-1.33292 -2.62425,-2.56244 -6.01527,-3.62717 -2.82146,-0.8859 -9.74688,-3.3282 -15.38981,-5.42732 l -10.25988,-3.81659 -2.24567,-5.13781 -2.24567,-5.13781 1.08764,-20.68086 c 0.59821,-11.37447 1.08411,-21.62523 1.07978,-22.77946 l -0.008,-2.09861 35.21003,-0.0297 c 22.39691,-0.0189 39.68355,-0.48312 47.50313,-1.27562 l 12.29309,-1.24587 7.60618,-5.32979 c 4.1834,-2.93138 7.79409,-5.14187 8.02377,-4.9122 0.22967,0.22967 -0.39305,4.05562 -1.38382,8.5021 -1.5926,7.14741 -1.68621,9.27151 -0.80759,18.32469 l 0.99382,10.24017 5.39296,6.40685 c 4.11093,4.88378 7.12277,7.35482 12.66943,10.39452 4.00206,2.19322 9.40151,5.7057 11.9988,7.80551 2.59728,2.0998 8.15127,5.70658 12.34219,8.01505 4.19093,2.30847 7.52226,4.40708 7.40297,4.66358 -0.11929,0.2565 -2.87876,2.98048 -6.13217,6.0533 l -5.91528,5.58694 -18.80169,0.6239 c -24.98975,0.82923 -63.23827,0.74438 -69.63471,-0.15448 z"
             id="path16"
             transform="scale(0.26458333)" />
          <path
             style="fill:#c2a68a;fill-opacity:1;stroke:#000000;stroke-width:7.40297;stroke-linecap:round;stroke-linejoin:round;stroke-dasharray:none;stroke-opacity:1;paint-order:stroke markers fill"
             d="m 565.65835,604.3527 c -0.584,-1.513 -4.13698,-10.93549 -7.89551,-20.93887 -3.75854,-10.00338 -9.21313,-24.27393 -12.12131,-31.71234 -2.90819,-7.43841 -8.87556,-23.38785 -13.26083,-35.44321 -4.38527,-12.05535 -8.1728,-22.44347 -8.41674,-23.08472 -0.26049,-0.68473 0.27127,-1.13799 1.28851,-1.09829 1.26348,0.0493 3.37217,3.34398 7.7947,12.17863 5.23568,10.45903 7.73395,14.10757 18.31518,26.74798 9.13877,10.91723 14.51459,16.40109 21.15365,21.57876 7.9626,6.20987 9.0991,7.47925 10.77881,12.03904 l 1.87768,5.09723 -3.98116,4.74985 c -8.54466,10.19448 -8.72587,10.64648 -7.70049,19.20695 0.59961,5.0058 0.52512,5.23036 -3.0781,9.27992 l -3.69258,4.14998 z"
             id="path17"
             transform="scale(0.26458333)" />
          <path
             style="fill:#ded9a2;fill-opacity:1;stroke:#000000;stroke-width:7.40297;stroke-linecap:round;stroke-linejoin:round;stroke-dasharray:none;stroke-opacity:1;paint-order:stroke markers fill"
             d="m 483.61322,472.04695 c -12.40055,-8.43105 -19.35265,-20.04413 -19.66112,-32.8428 -0.16386,-6.79862 0.0857,-7.89267 3.22054,-14.11759 3.25019,-6.45403 3.68336,-6.89148 9.94799,-10.0463 l 6.54983,-3.29844 34.71505,-0.88435 c 19.09328,-0.4864 41.28028,-0.89436 49.30446,-0.90658 l 14.58939,-0.0222 4.76446,4.28366 c 4.39464,3.95116 4.76446,4.61049 4.76446,8.49441 0,3.10053 -0.9144,5.88277 -3.46807,10.55229 -3.3058,6.04484 -3.80667,6.50663 -10.70519,9.87005 -3.98042,1.94068 -7.49969,3.26594 -7.8206,2.94504 -1.13638,-1.13639 6.68562,-9.26029 12.39562,-12.87404 8.7003,-5.50625 9.26126,-7.6838 3.38267,-13.13074 -4.03305,-3.73692 -5.97082,-4.44147 -15.39542,-5.59767 -8.40538,-1.03115 -9.09438,-0.96976 -20.19485,1.79953 -6.32091,1.5769 -12.09209,3.36466 -12.82485,3.97279 -3.45447,2.86696 -0.27357,10.14175 6.46026,14.77475 4.93045,3.39224 7.62403,3.62958 10.50249,0.9254 l 2.09272,-1.96601 1.46508,4.93345 c 0.8058,2.7134 1.46508,5.67194 1.46508,6.57454 0,0.90261 0.50518,1.95332 1.12262,2.33492 0.65634,0.40564 -0.96283,1.1635 -3.89828,1.82462 -4.45301,1.00291 -5.29208,0.94231 -7.41846,-0.53575 -1.5421,-1.07192 -5.7456,-2.04751 -11.78103,-2.73425 -5.16091,-0.58723 -12.08633,-1.89799 -15.38981,-2.9128 -3.30348,-1.01482 -8.93076,-2.27104 -12.50505,-2.7916 -5.87222,-0.85524 -6.73817,-0.76946 -8.98256,0.88989 l -2.48383,1.83638 -2.13945,-2.27733 c -3.64747,-3.88256 -8.34328,-2.54383 -8.34328,2.37859 0,3.13654 7.08905,10.26753 10.20714,10.26753 1.21464,0 3.58415,-1.0493 5.26558,-2.33179 3.78784,-2.88912 4.65778,-2.88937 13.90783,-0.004 4.10395,1.28017 9.7702,2.59534 12.59167,2.92262 2.82146,0.32728 5.66045,0.87374 6.30885,1.21436 0.88326,0.46399 -34.38716,16.36861 -44.55021,20.0892 -0.77981,0.28548 -4.08254,-1.31229 -7.46173,-3.60978 z"
             id="path18"
             transform="scale(0.26458333)" />
          <path
             style="fill:#c9d9d0;fill-opacity:1;stroke:#000000;stroke-width:7.40297;stroke-linecap:round;stroke-linejoin:round;stroke-dasharray:none;stroke-opacity:1;paint-order:stroke markers fill"
             d="m 275.19295,475.0789 c -7.67196,-2.01463 -14.1054,-3.81935 -14.29654,-4.0105 -0.37401,-0.374 -0.56694,-5.05296 -2.16096,-52.4053 l -1.04038,-30.906 2.5675,-21.79141 2.5675,-21.7914 8.98115,-19.28686 c 8.57109,-18.40628 9.36338,-19.72252 17.35316,-28.82892 5.66377,-6.45532 11.84182,-12.15382 19.09824,-17.61579 9.60121,-7.22691 12.24258,-8.67421 25.18334,-13.79884 l 14.45709,-5.72512 26.11605,0.71559 c 14.36383,0.39358 26.79398,0.47824 27.62257,0.18814 0.82859,-0.2901 5.39177,-5.24933 10.1404,-11.02051 4.74865,-5.77118 8.78429,-10.49305 8.96812,-10.49305 0.18383,0 3.70858,5.03666 7.83279,11.19259 8.3168,12.41391 7.72174,12.07682 17.25525,9.77486 4.21684,-1.01819 12.14873,-1.34989 32.1787,-1.34566 29.14649,0.006 34.31677,0.65245 50.05465,6.25695 11.32549,4.03318 17.18123,8.03452 27.7654,18.97264 8.60586,8.89365 9.8084,10.56931 12.10599,16.86891 4.00873,10.99123 3.46397,12.2788 -16.79542,39.69723 l -16.70131,22.60302 -37.39725,0.0154 c -35.03422,0.0144 -37.4948,0.12311 -38.94089,1.72103 -2.00632,2.21695 -1.95445,4.16242 0.16206,6.07782 1.52704,1.38196 5.59488,1.54364 38.83776,1.54364 h 37.13206 l 15.31442,12.35849 15.31441,12.35848 -89.82856,0.46636 -89.82856,0.46636 -3.87612,6.99537 c -6.09735,11.00407 -15.6784,24.44585 -28.03381,39.33017 -10.51015,12.66137 -12.35525,14.40674 -23.88104,22.59029 l -12.49086,8.86878 -11.56217,1.44402 c -6.35919,0.79422 -12.61147,1.60877 -13.89395,1.81013 -1.28249,0.20136 -8.60884,-1.28223 -16.28079,-3.29686 z m 43.55831,-104.87734 25.42093,-12.67834 24.61601,11.36873 c 21.3646,9.86709 24.90656,11.23636 26.81559,10.36655 3.89591,-1.77509 2.778,-5.02702 -7.05141,-20.5123 -5.08804,-8.0157 -9.39019,-15.05893 -9.56034,-15.65161 -0.17015,-0.59267 5.14703,-5.16232 11.81595,-10.15477 18.1257,-13.56917 19.39017,-15.05494 15.62299,-18.35713 -1.30787,-1.14644 -6.35219,-1.61848 -25.38281,-2.37525 -13.0628,-0.51945 -23.88827,-1.30475 -24.05658,-1.7451 -0.16832,-0.44035 -2.70182,-5.41759 -5.63001,-11.06052 -4.49643,-8.66514 -5.69881,-10.30345 -7.73559,-10.54021 -2.9304,-0.34064 -3.1446,-0.0854 -9.2364,11.00657 -2.67654,4.87344 -5.13804,9.14672 -5.47001,9.49617 -0.33196,0.34946 -10.88676,1.13714 -23.4551,1.7504 -23.82281,1.16242 -27.04877,1.81681 -27.04877,5.48686 0,1.07251 5.22371,6.63074 13.29121,14.14236 7.31016,6.80648 13.41898,12.46025 13.57515,12.56396 0.15618,0.10369 -3.93611,7.75565 -9.09398,17.00433 -5.15786,9.24868 -9.37793,17.60628 -9.37793,18.57246 0,2.3696 1.78189,3.99518 4.37934,3.99518 1.17746,0 13.58025,-5.70525 27.56176,-12.67834 z m 127.71306,-0.9906 c 2.11651,-1.91541 2.16838,-3.86088 0.16206,-6.07783 -2.14182,-2.36669 -15.63431,-2.48682 -18.20313,-0.16206 -2.11651,1.91541 -2.16838,3.86087 -0.16206,6.07783 2.14182,2.36669 15.63431,2.48682 18.20313,0.16206 z"
             id="path19"
             transform="scale(0.26458333)" />
          <path
             style="fill:#913f35;fill-opacity:1;stroke:#000000;stroke-width:7.40297;stroke-linecap:round;stroke-linejoin:round;stroke-dasharray:none;stroke-opacity:1;paint-order:stroke markers fill"
             d="m 302.66633,367.6088 c 0,-0.19587 2.97574,-5.68531 6.61275,-12.19876 4.70203,-8.42076 6.45414,-12.42902 6.06381,-13.87203 -0.30192,-1.11617 -5.19685,-6.22662 -10.87763,-11.35656 l -10.3287,-9.32716 12.42615,-0.71412 c 6.83438,-0.39277 15.98973,-1.02235 20.34522,-1.39908 l 7.91907,-0.68495 4.20623,-7.75011 4.20624,-7.75011 3.35618,7.3088 c 4.85071,10.56348 4.75853,10.50422 16.53066,10.62761 5.47804,0.0574 13.83955,0.37221 18.58113,0.69954 l 8.62106,0.59514 -10.95285,8.41681 c -8.17527,6.28236 -11.01512,9.00246 -11.19843,10.72623 -0.16363,1.53876 1.92213,5.72239 6.25038,12.53703 3.57277,5.62519 6.37208,10.35148 6.22069,10.50287 -0.15139,0.15139 -8.07651,-3.2968 -17.61137,-7.66264 -9.53486,-4.36584 -18.20851,-7.9379 -19.27479,-7.9379 -1.06628,0 -10.74904,4.40899 -21.51724,9.79776 -10.76821,5.38877 -19.57856,9.6375 -19.57856,9.44163 z"
             id="path20"
             transform="scale(0.26458333)" />
        </g>
      </g>
    </g>
  </g>
</svg>
